<?xml version="1.0" encoding="UTF-8" standalone="no"?>
<!-- Created with Inkscape (http://www.inkscape.org/) -->

<svg
   xmlns:dc="http://purl.org/dc/elements/1.1/"
   xmlns:cc="http://creativecommons.org/ns#"
   xmlns:rdf="http://www.w3.org/1999/02/22-rdf-syntax-ns#"
   xmlns:svg="http://www.w3.org/2000/svg"
   xmlns="http://www.w3.org/2000/svg"
   xmlns:sodipodi="http://sodipodi.sourceforge.net/DTD/sodipodi-0.dtd"
   xmlns:inkscape="http://www.inkscape.org/namespaces/inkscape"
   width="34.607449mm"
   height="34.541496mm"
   viewBox="0 0 34.607449 34.541496"
   version="1.1"
   id="svg8"
   inkscape:version="0.92.3 (2405546, 2018-03-11)"
   sodipodi:docname="gear_2.svg">
  <defs
     id="defs2" />
  <sodipodi:namedview
     id="base"
     pagecolor="#ffffff"
     bordercolor="#666666"
     borderopacity="1.0"
     inkscape:pageopacity="0.0"
     inkscape:pageshadow="2"
     inkscape:zoom="5.8444797"
     inkscape:cx="65.3999"
     inkscape:cy="65.275281"
     inkscape:document-units="mm"
     inkscape:current-layer="layer1"
     showgrid="false"
     inkscape:measure-start="315.62,740.089"
     inkscape:measure-end="360.295,740.303"
     inkscape:window-width="1920"
     inkscape:window-height="986"
     inkscape:window-x="-11"
     inkscape:window-y="-11"
     inkscape:window-maximized="1"
     fit-margin-top="0"
     fit-margin-left="0"
     fit-margin-right="0"
     fit-margin-bottom="0" />
  <metadata
     id="metadata5">
    <rdf:RDF>
      <cc:Work
         rdf:about="">
        <dc:format>image/svg+xml</dc:format>
        <dc:type
           rdf:resource="http://purl.org/dc/dcmitype/StillImage" />
        <dc:title></dc:title>
      </cc:Work>
    </rdf:RDF>
  </metadata>
  <g
     inkscape:label="Layer 1"
     inkscape:groupmode="layer"
     id="layer1"
     transform="translate(-53.854698,-115.22581)">
    <path
       style="fill:none;stroke:#ff0000;stroke-width:0.13108739;stroke-miterlimit:4;stroke-dasharray:none;stroke-opacity:1"
       d="m 72.537532,149.70176 -1.390861,-4.62527 c -0.592352,-0.008 -1.18347,-0.0547 -1.769169,-0.14114 l -2.264622,4.31327 c -0.588561,-0.14362 -1.169148,-0.31786 -1.739375,-0.52202 l 0.62699,-4.74754 c -0.577299,-0.2455 -1.135361,-0.53175 -1.669721,-0.85643 l -3.764865,2.9678 c -0.471142,-0.36631 -0.92293,-0.75664 -1.353553,-1.16944 l 2.465428,-3.98742 c -0.454309,-0.48671 -0.868651,-1.00736 -1.239208,-1.55712 l -4.517022,1.16026 c -0.276583,-0.52493 -0.525807,-1.06369 -0.746682,-1.61416 l 3.776705,-2.57232 c -0.213785,-0.6587 -0.371364,-1.33343 -0.471133,-2.01732 l -4.505943,-0.7406 c -0.0294,-0.35906 -0.04748,-0.71896 -0.05425,-1.07916 0.0035,-0.23136 0.01179,-0.46261 0.0247,-0.69363 l 4.494485,-0.82849 c 0.08417,-0.68885 0.226847,-1.36975 0.426566,-2.0357 l -3.832095,-2.50207 c 0.207712,-0.55255 0.44376,-1.09412 0.707208,-1.62259 l 4.530393,1.07061 c 0.362831,-0.56535 0.771333,-1.10174 1.221636,-1.60408 l -2.538518,-3.93051 c 0.419078,-0.41951 0.859554,-0.81727 1.319683,-1.19173 l 3.812868,2.88672 c 0.535981,-0.34408 1.097591,-0.64883 1.680164,-0.91171 l -0.71956,-4.72612 c 0.561063,-0.21399 1.132926,-0.39877 1.713269,-0.55363 l 2.347135,4.26404 c 0.595602,-0.098 1.19754,-0.15534 1.801384,-0.17149 l 1.303895,-4.66859 c 0.608186,0.0339 1.214159,0.0997 1.81539,0.19705 l 0.391167,4.85041 c 0.569148,0.13888 1.127908,0.31532 1.672398,0.52806 l 3.076892,-3.69922 c 0.552388,0.28466 1.088982,0.59871 1.607453,0.9408 l -1.600451,4.48375 c 0.462744,0.35252 0.900216,0.73534 1.30937,1.14577 l 4.216256,-2.08442 c 0.399097,0.49257 0.770662,1.00665 1.113024,1.53986 l -3.199887,3.34126 c 0.28008,0.51284 0.523275,1.04393 0.727834,1.58947 l 4.593934,-0.20334 c 0.170693,0.61859 0.306602,1.24617 0.407084,1.87983 l -4.221609,1.73415 c 0.02972,0.32442 0.04645,0.64984 0.05017,0.97554 -0.0014,0.25905 -0.01058,0.518 -0.02825,0.77648 l 4.245801,1.64852 c -0.08903,0.6361 -0.213671,1.26676 -0.373339,1.88902 l -4.601448,-0.11445 c -0.195524,0.54409 -0.429308,1.07445 -0.699691,1.58734 l 3.265206,3.2783 c -0.333724,0.54179 -0.697263,1.06482 -1.088953,1.56669 l -4.257775,-2.00272 c -0.398793,0.40861 -0.825388,0.79069 -1.276899,1.14364 l 1.690864,4.45705 c -0.518021,0.35134 -1.054799,0.67443 -1.607976,0.96787 l -3.142203,-3.63022 c -0.531617,0.21474 -1.077395,0.39469 -1.633686,0.53864 l -0.294777,4.85141 c -0.606048,0.10937 -1.217521,0.18649 -1.831817,0.23104 z"
       id="path857"
       inkscape:connector-curvature="0" />
    <rect
       style="opacity:1;fill:#000000;fill-opacity:0;stroke:#ec0000;stroke-width:0.09804305;stroke-miterlimit:4;stroke-dasharray:none;stroke-opacity:1"
       id="rect820"
       width="4.9119573"
       height="4.9119568"
       x="68.702446"
       y="130.04057" />
  </g>
</svg>
